HIERARCHY
ROOT hip
{
	OFFSET 0.000000 0.000000 0.000000 
	CHANNELS 6 Xposition Yposition Zposition Xrotation Zrotation Yrotation
	JOINT abdomen
	{
		OFFSET 0.000000 3.402643 0.000000 
		CHANNELS 3 Xrotation Zrotation Yrotation
		JOINT chest
		{
			OFFSET 0.000000 8.438565 -0.680529 
			CHANNELS 3 Xrotation Zrotation Yrotation
			JOINT neck
			{
				OFFSET 0.000000 10.207942 -0.272212 
				CHANNELS 3 Xrotation Zrotation Yrotation
				JOINT head
				{
					OFFSET 0.000000 3.130431 0.000000 
					CHANNELS 3 Xrotation Zrotation Yrotation
					End Site
					{
						OFFSET 0.000000 3.130435 0.000000 
					}
				}
			}
			JOINT lCollar
			{
				OFFSET 3.470700 6.669187 -0.816635 
				CHANNELS 3 Yrotation Zrotation Xrotation
				JOINT lShldr
				{
					OFFSET 3.198488 0.000000 0.000000 
					CHANNELS 3 Zrotation Yrotation Xrotation
					JOINT lForeArm
					{
						OFFSET 10.139888 0.000000 0.000000 
						CHANNELS 3 Yrotation Zrotation Xrotation
						JOINT lHand
						{
							OFFSET 8.370511 0.000000 0.000000 
							CHANNELS 3 Zrotation Yrotation Xrotation
							End Site
							{
								OFFSET 4.083176 0.000000 0.000000 
							}
						}
					}
				}
			}
			JOINT rCollar
			{
				OFFSET -3.470700 6.669187 -0.816635 
				CHANNELS 3 Yrotation Zrotation Xrotation
				JOINT rShldr
				{
					OFFSET -3.198488 0.000000 0.000000 
					CHANNELS 3 Zrotation Yrotation Xrotation
					JOINT rForeArm
					{
						OFFSET -10.139888 0.000000 0.000000 
						CHANNELS 3 Yrotation Zrotation Xrotation
						JOINT rHand
						{
							OFFSET -8.370511 0.000000 0.000000 
							CHANNELS 3 Zrotation Yrotation Xrotation
							End Site
							{
								OFFSET -4.083176 0.000000 0.000000 
							}
						}
					}
				}
			}
		}
	}
	JOINT lThigh
	{
		OFFSET 5.308129 -1.633274 1.361059 
		CHANNELS 3 Xrotation Zrotation Yrotation
		JOINT lShin
		{
			OFFSET -2.041588 -20.007561 0.000000 
			CHANNELS 3 Xrotation Zrotation Yrotation
			JOINT lFoot
			{
				OFFSET 0.000000 -19.190928 -1.224953 
				CHANNELS 3 Xrotation Yrotation Zrotation
				End Site
				{
					OFFSET 0.000000 -2.449906 4.627600 
				}
			}
		}
	}
	JOINT rThigh
	{
		OFFSET -5.308129 -1.633274 1.361059 
		CHANNELS 3 Xrotation Zrotation Yrotation
		JOINT rShin
		{
			OFFSET 2.041588 -20.007561 0.000000 
			CHANNELS 3 Xrotation Zrotation Yrotation
			JOINT rFoot
			{
				OFFSET 0.000000 -19.190928 -1.224953 
				CHANNELS 3 Xrotation Yrotation Zrotation
				End Site
				{
					OFFSET 0.000000 -2.449906 4.627600 
				}
			}
		}
	}
}
MOTION
Frames: 11
Frame Time: 0.016667
0.546179 53.129452 0.600370 -11.139244 2.139238 5.306684 23.636837 0.546973 -0.620724 3.915572 0.937287 -1.806797 -2.904386 4.445354 -0.386332 12.758321 -2.081026 7.631823 -17.069229 -12.222310 -0.637073 -63.788776 14.355474 -26.781111 -23.223246 -5.000000 28.659662 -15.476043 0.113422 5.429410 15.001112 15.847453 -0.850315 61.734131 -11.976221 -25.290558 25.472353 5.000000 19.572515 12.255108 -23.340899 4.739605 17.669369 12.173825 0.758680 5.817276 -5.243198 -0.743520 -11.031042 4.123902 -6.498907 24.607571 -7.040964 -8.493376 -2.164975 2.699754 -0.035405 -7.313556 -15.991119 5.021351 
0.547322 53.120033 0.594301 -11.153013 2.080764 5.345356 23.646141 0.627310 -0.610123 3.866904 0.937291 -1.806798 -2.884724 4.426043 -0.383412 12.791809 -2.090128 7.749286 -17.068670 -12.173550 -0.634561 -63.864952 14.407511 -26.800274 -23.235960 -5.000000 28.691650 -15.466699 0.182659 5.278529 15.067822 15.740174 -0.842103 61.845135 -12.031177 -25.334530 25.449785 5.000000 19.532923 12.230955 -23.353567 4.875135 17.675591 12.236165 0.781571 5.779188 -5.242106 -0.720710 -11.158766 4.114941 -6.143268 24.604189 -6.952214 -8.497788 -2.175056 2.691635 -0.035712 -7.171990 -15.988809 4.996108 
0.547894 53.112572 0.588958 -11.157440 2.022328 5.374631 23.665312 0.703813 -0.590548 3.827842 0.937291 -1.806798 -2.865128 4.416388 -0.381952 12.814875 -2.108989 7.846874 -17.058462 -12.134544 -0.632550 -63.928848 14.437839 -26.808699 -23.237396 -5.000000 28.717886 -15.472457 0.204375 5.171393 15.134840 15.652398 -0.837564 61.922855 -12.076275 -25.352161 25.441702 5.000000 19.482441 12.212698 -23.357140 4.975629 17.688467 12.289759 0.835470 5.739687 -5.241529 -0.736920 -11.258759 4.156694 -5.827906 24.618092 -6.904386 -8.483370 -2.190733 2.716618 -0.037786 -7.053270 -16.001289 4.983555 
0.547893 53.107059 0.584338 -11.162016 1.973714 5.374624 23.665268 0.758224 -0.568841 3.808359 0.927524 -1.806797 -2.855298 4.406732 -0.380491 12.829458 -2.118162 7.944823 -17.058130 -12.105287 -0.631042 -63.969162 14.468117 -26.826937 -23.246181 -5.000000 28.732281 -15.481664 0.188563 5.074646 15.192396 15.584125 -0.834032 61.990284 -12.103745 -25.368687 25.431812 5.000000 19.440582 12.192653 -23.379492 5.070994 17.694515 12.351999 0.858387 5.700094 -5.241384 -0.733648 -11.302403 4.171699 -5.580291 24.603846 -6.844960 -8.446500 -2.193308 2.688927 -0.046564 -6.957837 -16.029263 4.951422 
0.547891 53.101563 0.579718 -11.166264 1.925070 5.384047 23.675058 0.817974 -0.534712 3.779063 0.927524 -1.797031 -2.844789 4.408194 -0.370864 12.844010 -2.127325 8.042410 -17.057798 -12.076031 -0.629534 -64.007233 14.494112 -26.836714 -23.249990 -5.000000 28.766571 -15.501408 0.164191 4.980476 15.259872 15.525605 -0.831003 62.048191 -12.144001 -25.378696 25.431061 5.000000 19.413786 12.188210 -23.391281 5.152418 17.692406 12.390791 0.877475 5.662263 -5.253847 -0.721010 -11.374209 4.249591 -5.301440 24.591579 -6.815215 -8.428123 -2.194462 2.701043 -0.037262 -6.853323 -16.011972 4.951934 
0.547891 53.098743 0.576020 -11.168044 1.895811 5.413325 23.704054 0.858136 -0.529605 3.749765 0.927524 -1.797031 -2.854554 4.408194 -0.370864 12.888556 -2.136581 8.120843 -17.038158 -12.066278 -0.629031 -64.036903 14.515735 -26.848335 -23.251408 -5.000000 28.792795 -15.499171 0.174054 4.906794 15.298202 15.476842 -0.828478 62.095818 -12.166652 -25.387493 25.407965 5.000000 19.409494 12.166228 -23.375494 5.224340 17.683565 12.420093 0.853573 5.653804 -5.263000 -0.720465 -11.402894 4.292608 -5.138165 24.583057 -6.776431 -8.436777 -2.194689 2.700382 -0.047009 -6.810724 -15.995015 4.942733 
0.547891 53.095924 0.572323 -11.168928 1.876276 5.442603 23.723312 0.901993 -0.533103 3.720469 0.927524 -1.797031 -2.864257 4.398539 -0.369404 12.933078 -2.145829 8.198910 -17.018406 -12.046775 -0.628026 -64.069397 14.532834 -26.872744 -23.251822 -5.000000 28.837172 -15.496949 0.186533 4.842556 15.336531 15.428079 -0.825953 62.143917 -12.180664 -25.400892 25.394258 5.000000 19.401630 12.136887 -23.366116 5.284925 17.692804 12.458890 0.852794 5.630209 -5.259214 -0.738236 -11.430758 4.281127 -5.001916 24.592287 -6.746939 -8.448143 -2.194464 2.701041 -0.037262 -6.768147 -15.957189 4.942771 
0.547891 53.094635 0.569250 -11.180230 1.856802 5.452361 23.733295 0.925659 -0.512901 3.691172 0.927524 -1.797031 -2.864257 4.398539 -0.369404 12.967805 -2.155070 8.277345 -17.008419 -12.027270 -0.627020 -64.087822 14.554597 -26.873451 -23.249220 -5.000000 28.862526 -15.495491 0.194854 4.799707 15.375155 15.398819 -0.824437 62.182983 -12.198856 -25.412266 25.386629 5.000000 19.394617 12.136054 -23.363802 5.313793 17.698275 12.485590 0.849976 5.609064 -5.267340 -0.746607 -11.442369 4.253774 -4.906858 24.596046 -6.699001 -8.443815 -2.191674 2.677158 -0.055873 -6.743363 -15.997360 4.918097 
0.547891 53.094875 0.566799 -11.190925 1.847081 5.452360 23.743378 0.921695 -0.503530 3.672005 0.917764 -1.787111 -2.854617 4.417849 -0.372325 13.002877 -2.164356 8.345654 -17.008202 -12.007767 -0.626015 -64.097847 14.571997 -26.875946 -23.237846 -5.000000 28.873508 -15.494737 0.201624 4.787694 15.404160 15.379308 -0.823426 62.194977 -12.229615 -25.417482 25.383099 5.000000 19.411921 12.138396 -23.368811 5.331321 17.702225 12.497773 0.861998 5.608877 -5.267756 -0.736873 -11.400295 4.261038 -4.871265 24.593475 -6.708169 -8.446724 -2.194453 2.700094 -0.056764 -6.707130 -15.938699 4.939487 
0.547891 53.095116 0.564349 -11.201304 1.837329 5.461806 23.763168 0.930534 -0.499337 3.652474 0.917764 -1.777345 -2.834401 4.428966 -0.364158 13.029591 -2.163976 8.413964 -17.017857 -11.998015 -0.625512 -64.116287 14.593760 -26.876680 -23.237747 -5.000000 28.890219 -15.493239 0.215166 4.763669 15.440488 15.372150 -0.813843 62.215988 -12.256181 -25.424776 25.368629 5.000000 19.424706 12.149940 -23.360340 5.326153 17.702429 12.497888 0.871972 5.611866 -5.250414 -0.726571 -11.399639 4.256983 -4.829871 24.600071 -6.687838 -8.460994 -2.193089 2.689575 -0.036816 -6.692471 -15.956198 4.932194 
0.547891 53.095448 0.562851 -11.191226 1.837299 5.471879 23.753382 0.930918 -0.499183 3.623286 0.927534 -1.767580 -2.814808 4.419311 -0.362698 13.055235 -2.173307 8.472883 -17.007984 -11.988262 -0.625009 -64.125702 14.619942 -26.874966 -23.221476 -5.000000 28.904398 -15.482833 0.215915 4.732870 15.472084 15.350046 -0.821908 62.246021 -12.278548 -25.434175 25.374704 5.000000 19.423643 12.156409 -23.363302 5.334917 17.697565 12.504147 0.854283 5.604693 -5.272231 -0.736149 -11.342043 4.247531 -4.846744 24.600071 -6.687841 -8.460995 -2.205102 2.692368 -0.037554 -6.679733 -15.952013 4.934778 
